<?xml version="1.0" encoding="utf-8"?>
<!-- Generator: Adobe Illustrator 16.0.0, SVG Export Plug-In . SVG Version: 6.00 Build 0)  -->
<!DOCTYPE svg PUBLIC "-//W3C//DTD SVG 1.0//EN" "http://www.w3.org/TR/2001/REC-SVG-20010904/DTD/svg10.dtd">
<svg version="1.0" id="Layer_2" xmlns="http://www.w3.org/2000/svg" xmlns:xlink="http://www.w3.org/1999/xlink" x="0px" y="0px"
	 width="260px" height="150px" viewBox="0 0 260 150" enable-background="new 0 0 260 150" xml:space="preserve">
<path fill-rule="evenodd" clip-rule="evenodd" fill="#20202A" d="M100,55c16.569,0,30,13.431,30,30s-13.431,30-30,30
	s-30-13.431-30-30S83.431,55,100,55z"/>
<path fill-rule="evenodd" clip-rule="evenodd" fill="#20202A" d="M30,55c16.569,0,30,13.431,30,30s-13.431,30-30,30S0,101.569,0,85
	S13.431,55,30,55z"/>
<path fill-rule="evenodd" clip-rule="evenodd" fill="#20202A" d="M95,120c0,16.569-13.431,30-30,30s-30-13.431-30-30
	s13.431-30,30-30S95,103.431,95,120z"/>
<path fill-rule="evenodd" clip-rule="evenodd" fill="#20202A" d="M95,50c0,16.569-13.431,30-30,30S35,66.569,35,50s13.431-30,30-30
	S95,33.431,95,50z"/>
<rect x="50.333" y="63" fill="#20202A" width="34.333" height="44.334"/>
<g>
	<path fill="#FFFFFF" d="M70.11,53c-0.266,0-0.467-0.109-0.602-0.335l-4.495-7.255l-4.522,7.255C60.356,52.891,60.155,53,59.89,53
		c-0.228,0-0.433-0.1-0.614-0.303C59.093,52.494,59,52.28,59,52.057c0-0.144,0.042-0.266,0.116-0.367l5.097-8.201
		C64.425,43.164,64.69,43,65.014,43c0.324,0,0.583,0.164,0.773,0.488l5.097,8.201C70.96,51.791,71,51.913,71,52.057
		c0,0.224-0.093,0.438-0.275,0.641C70.546,52.9,70.341,53,70.11,53z"/>
</g>
<g>
	<path fill="#E5FFB2" d="M97,90.11c0-0.266,0.109-0.467,0.335-0.602l7.255-4.495l-7.255-4.522C97.109,80.356,97,80.155,97,79.89
		c0-0.228,0.1-0.433,0.303-0.614C97.506,79.093,97.72,79,97.943,79c0.144,0,0.266,0.042,0.367,0.116l8.201,5.097
		c0.324,0.212,0.488,0.478,0.488,0.801c0,0.324-0.164,0.583-0.488,0.773l-8.201,5.097C98.209,90.96,98.087,91,97.943,91
		c-0.224,0-0.438-0.093-0.641-0.275C97.1,90.546,97,90.341,97,90.11z"/>
</g>
<g>
	<path fill="#E5FFB2" d="M33,79.89c0,0.266-0.109,0.467-0.335,0.602l-7.255,4.495l7.255,4.522C32.891,89.644,33,89.845,33,90.11
		c0,0.228-0.1,0.433-0.303,0.614C32.494,90.907,32.28,91,32.057,91c-0.144,0-0.266-0.042-0.367-0.116l-8.201-5.097
		C23.164,85.575,23,85.31,23,84.986c0-0.324,0.164-0.583,0.488-0.773l8.201-5.097C31.791,79.04,31.913,79,32.057,79
		c0.224,0,0.438,0.093,0.641,0.275C32.9,79.454,33,79.659,33,79.89z"/>
</g>
<g>
	<path fill="#E5FFB2" d="M59.89,117c0.266,0,0.467,0.109,0.602,0.335l4.495,7.255l4.522-7.255c0.135-0.226,0.336-0.335,0.602-0.335
		c0.228,0,0.433,0.1,0.614,0.303c0.183,0.203,0.275,0.417,0.275,0.641c0,0.144-0.042,0.266-0.116,0.367l-5.097,8.201
		C65.575,126.836,65.31,127,64.986,127c-0.324,0-0.583-0.164-0.773-0.488l-5.097-8.201C59.04,118.209,59,118.087,59,117.943
		c0-0.224,0.093-0.438,0.275-0.641C59.454,117.1,59.659,117,59.89,117z"/>
</g>
<path fill-rule="evenodd" clip-rule="evenodd" fill="#FF0055" d="M30,110c-8.284,0-15,6.715-15,14.999V125h15v15
	c8.284,0,15-6.716,15-15.001C45,116.715,38.284,110,30,110z"/>
<path fill-rule="evenodd" clip-rule="evenodd" fill="#FF0055" d="M100,110c8.284,0,15,6.715,15,14.999V125h-15v15
	c-8.284,0-15-6.716-15-15.001C85,116.715,91.716,110,100,110z"/>
<g>
	<circle fill-rule="evenodd" clip-rule="evenodd" fill="#FF0055" cx="41" cy="48" r="4"/>
	<path fill-rule="evenodd" clip-rule="evenodd" fill="#FF0055" d="M38.657,42.343c-3.124-3.124-8.189-3.124-11.313,0L33,48
		l-5.657,5.657c3.124,3.124,8.189,3.124,11.313,0S41.781,45.467,38.657,42.343z"/>
</g>
<g>
	<circle fill-rule="evenodd" clip-rule="evenodd" fill="#FF0055" cx="89" cy="48" r="4"/>
	<path fill-rule="evenodd" clip-rule="evenodd" fill="#FF0055" d="M91.343,42.343c3.124-3.124,8.189-3.124,11.313,0L97,48
		l5.656,5.657c-3.124,3.124-8.189,3.124-11.313,0S88.219,45.467,91.343,42.343z"/>
</g>
<rect x="182.625" y="10.334" fill-rule="evenodd" clip-rule="evenodd" fill="#20202A" width="4" height="20"/>
<rect x="202.625" y="10.334" fill-rule="evenodd" clip-rule="evenodd" fill="#20202A" width="4" height="20"/>
<circle fill-rule="evenodd" clip-rule="evenodd" fill="#20202A" cx="184.625" cy="8" r="8"/>
<circle fill-rule="evenodd" clip-rule="evenodd" fill="#FF0055" cx="184.625" cy="8" r="5"/>
<circle fill-rule="evenodd" clip-rule="evenodd" fill="#20202A" cx="184.625" cy="8" r="2"/>
<circle fill-rule="evenodd" clip-rule="evenodd" fill="#20202A" cx="204.625" cy="8" r="8"/>
<circle fill-rule="evenodd" clip-rule="evenodd" fill="#FF0055" cx="204.625" cy="8" r="5"/>
<circle fill-rule="evenodd" clip-rule="evenodd" fill="#20202A" cx="204.625" cy="8" r="2"/>
</svg>
