<?xml version="1.0" encoding="utf-8"?>
<!-- Generator: Adobe Illustrator 16.0.4, SVG Export Plug-In . SVG Version: 6.00 Build 0)  -->
<!DOCTYPE svg PUBLIC "-//W3C//DTD SVG 1.0//EN" "http://www.w3.org/TR/2001/REC-SVG-20010904/DTD/svg10.dtd">
<svg version="1.0" xmlns="http://www.w3.org/2000/svg" xmlns:xlink="http://www.w3.org/1999/xlink" x="0px" y="0px" width="120px"
	 height="120px" viewBox="0 0 120 120" enable-background="new 0 0 120 120" xml:space="preserve">
<g id="Layer_1" display="none">
	<rect x="35" display="inline" fill="#FFFFFF" stroke="#1D1D1B" stroke-miterlimit="10" width="4" height="39"/>
	<rect x="35" y="81" display="inline" fill="#FFFFFF" stroke="#1D1D1B" stroke-miterlimit="10" width="4" height="39"/>
	<rect y="35" display="inline" fill="#FFFFFF" stroke="#1D1D1B" stroke-miterlimit="10" width="4" height="50.001"/>
	<rect x="116" y="35" display="inline" fill="#FFFFFF" stroke="#1D1D1B" stroke-miterlimit="10" width="4" height="50.001"/>
	<rect x="81" display="inline" fill="#FFFFFF" stroke="#1D1D1B" stroke-miterlimit="10" width="4" height="39"/>
	<rect x="81" y="81" display="inline" fill="#FFFFFF" stroke="#1D1D1B" stroke-miterlimit="10" width="4" height="39"/>
	<rect y="35" display="inline" fill="#FFFFFF" stroke="#1D1D1B" stroke-miterlimit="10" width="39" height="4"/>
	<rect y="81" display="inline" fill="#FFFFFF" stroke="#1D1D1B" stroke-miterlimit="10" width="39" height="4"/>
	<rect x="81" y="35" display="inline" fill="#FFFFFF" stroke="#1D1D1B" stroke-miterlimit="10" width="39" height="4"/>
	<rect x="81" y="81" display="inline" fill="#FFFFFF" stroke="#1D1D1B" stroke-miterlimit="10" width="39" height="4"/>
	<rect x="35" display="inline" fill="#FFFFFF" stroke="#1D1D1B" stroke-miterlimit="10" width="50" height="4"/>
	<rect x="35" y="116" display="inline" fill="#FFFFFF" stroke="#1D1D1B" stroke-miterlimit="10" width="50" height="4"/>
</g>
<g id="Layer_3">
	<polygon opacity="0.2" fill="#B7B7AD" points="116,81 81,81 81,116 39,116 39,81 4,81 4,39 39,39 39,4 81,4 81,39 116,39 	"/>
</g>
<g id="Layer_1_copy">
	<path fill="#FFFFFF" d="M85,35V0H35v35H0v50.001h4V85h31v35h50V85h31v0.001h4V35H85z M116,81H81v35H39V81H4V39h35V4h42v35h35V81z"
		/>
</g>
</svg>
