<?xml version="1.0" encoding="utf-8"?>
<!-- Generator: Adobe Illustrator 16.0.4, SVG Export Plug-In . SVG Version: 6.00 Build 0)  -->
<!DOCTYPE svg PUBLIC "-//W3C//DTD SVG 1.0//EN" "http://www.w3.org/TR/2001/REC-SVG-20010904/DTD/svg10.dtd">
<svg version="1.0" id="Layer_1" xmlns="http://www.w3.org/2000/svg" xmlns:xlink="http://www.w3.org/1999/xlink" x="0px" y="0px"
	 width="270px" height="60px" viewBox="0 0 270 60" enable-background="new 0 0 270 60" xml:space="preserve">
<path fill="#20202A" d="M80,40l4-5l-4-5v0H10v30h70l4-5l-4-5l4-5L80,40z M45,0L35,30h20L45,0z"/>
<path fill="#20202A" d="M170,40l4-5l-4-5v0h-70v0l-4,5l4,5l-4,5l4,5l-4,5l4,5h70l4-5l-4-5l4-5L170,40z M135,0l-10,30h20L135,0z"/>
<path fill="#20202A" d="M190,30L190,30l-4,5l4,5l-4,5l4,5l-4,5l4,5h70V30H190z M225,0l-10,30h20L225,0z"/>
<g>
	<path fill="#17E69D" d="M25.325,48.502c0-0.111,0.044-0.226,0.133-0.343c0.088-0.116,0.184-0.175,0.287-0.175
		c0.075,0,0.168,0.061,0.28,0.182l0.392,0.406c0.14,0.149,0.361,0.282,0.665,0.399c0.303,0.116,0.655,0.175,1.057,0.175
		c0.663,0,1.176-0.166,1.54-0.497c0.364-0.331,0.546-0.81,0.546-1.436c0-0.42-0.086-0.776-0.259-1.07
		c-0.173-0.294-0.395-0.521-0.665-0.68c-0.261-0.168-0.56-0.316-0.896-0.447l-1.008-0.393c-0.336-0.13-0.637-0.287-0.903-0.469
		c-0.266-0.182-0.485-0.438-0.658-0.77c-0.173-0.332-0.259-0.726-0.259-1.184c0-0.487,0.091-0.907,0.273-1.26
		c0.182-0.352,0.427-0.617,0.735-0.795c0.308-0.179,0.623-0.308,0.945-0.388c0.322-0.079,0.66-0.119,1.015-0.119
		c0.569,0,1.104,0.081,1.603,0.245c0.499,0.163,0.749,0.366,0.749,0.608c0,0.112-0.04,0.227-0.119,0.343
		c-0.08,0.117-0.175,0.176-0.287,0.176c-0.056,0-0.163-0.043-0.322-0.13c-0.159-0.086-0.38-0.173-0.665-0.259
		c-0.285-0.086-0.609-0.13-0.973-0.13c-0.588,0-1.073,0.126-1.456,0.378s-0.574,0.668-0.574,1.246c0,0.401,0.114,0.737,0.343,1.008
		c0.229,0.271,0.516,0.467,0.861,0.588c0.345,0.122,0.719,0.267,1.12,0.435s0.775,0.348,1.12,0.539s0.632,0.495,0.861,0.91
		s0.343,0.926,0.343,1.532c0,0.957-0.266,1.675-0.798,2.153C29.819,49.762,29.1,50,28.195,50c-0.812,0-1.494-0.173-2.044-0.52
		C25.6,49.134,25.325,48.808,25.325,48.502z"/>
	<path fill="#17E69D" d="M33.048,40.096c0-0.11,0.03-0.209,0.091-0.297c0.061-0.087,0.147-0.131,0.259-0.131h5.614
		c0.112,0,0.198,0.042,0.259,0.124c0.061,0.083,0.091,0.18,0.091,0.29c0,0.119-0.03,0.223-0.091,0.31
		c-0.061,0.087-0.147,0.131-0.259,0.131h-2.338v9.016c0,0.112-0.047,0.201-0.14,0.267s-0.201,0.098-0.322,0.098
		c-0.131,0-0.24-0.032-0.329-0.098s-0.133-0.154-0.133-0.267v-9.016h-2.352c-0.103,0-0.187-0.041-0.252-0.124
		C33.081,40.315,33.048,40.215,33.048,40.096z"/>
	<path fill="#17E69D" d="M41.267,46.99v-4.34c0-1.026,0.264-1.78,0.791-2.261c0.527-0.48,1.234-0.722,2.121-0.722
		s1.594,0.241,2.121,0.722s0.791,1.234,0.791,2.261v4.34c0,1.036-0.264,1.795-0.791,2.275s-1.234,0.721-2.121,0.721
		s-1.594-0.24-2.121-0.721C41.53,48.785,41.267,48.026,41.267,46.99z M42.19,46.99c0,1.428,0.663,2.143,1.988,2.143
		s1.988-0.715,1.988-2.143v-4.34c0-1.419-0.663-2.128-1.988-2.128s-1.988,0.709-1.988,2.128V46.99z"/>
	<path fill="#17E69D" d="M49.773,49.538v-9.52c0-0.233,0.154-0.351,0.462-0.351c0.261,0,0.504,0.215,0.728,0.645l3.78,7.448v-7.757
		c0-0.224,0.154-0.336,0.462-0.336s0.462,0.112,0.462,0.336v9.534c0,0.112-0.047,0.201-0.14,0.267s-0.201,0.098-0.322,0.098
		c-0.233,0-0.439-0.177-0.616-0.532l-3.892-7.574v7.742c0,0.112-0.046,0.201-0.14,0.267c-0.094,0.065-0.201,0.098-0.322,0.098
		c-0.131,0-0.24-0.032-0.329-0.098C49.817,49.739,49.773,49.65,49.773,49.538z"/>
	<path fill="#17E69D" d="M58.432,49.538v-9.52c0-0.112,0.042-0.198,0.126-0.259s0.182-0.092,0.294-0.092h4.984
		c0.233,0,0.35,0.136,0.35,0.406c0,0.121-0.03,0.227-0.091,0.315c-0.061,0.089-0.147,0.133-0.259,0.133h-4.48v3.85h2.198
		c0.112,0,0.198,0.04,0.259,0.119s0.091,0.18,0.091,0.301c0,0.252-0.117,0.378-0.35,0.378h-2.198v3.879h4.48
		c0.103,0,0.187,0.042,0.252,0.126c0.065,0.084,0.098,0.187,0.098,0.308c0,0.28-0.117,0.42-0.35,0.42h-4.984
		c-0.112,0-0.21-0.032-0.294-0.098S58.432,49.65,58.432,49.538z"/>
</g>
<g>
	<path fill="#17E69D" d="M115.758,49.607v-9.534c0-0.205,0.131-0.316,0.392-0.336h2.576c0.877,0,1.577,0.238,2.1,0.715
		c0.523,0.476,0.784,1.227,0.784,2.254v0.14c0,1.026-0.264,1.78-0.791,2.261c-0.527,0.481-1.234,0.722-2.121,0.722h-2.016v3.779
		c0,0.112-0.046,0.201-0.14,0.267c-0.094,0.065-0.201,0.098-0.322,0.098c-0.131,0-0.24-0.032-0.329-0.098
		C115.803,49.809,115.758,49.72,115.758,49.607z M116.682,45.029h2.016c0.635,0,1.125-0.177,1.47-0.531
		c0.345-0.354,0.518-0.892,0.518-1.61V42.72c0-1.419-0.663-2.128-1.988-2.128h-2.016V45.029z"/>
	<path fill="#17E69D" d="M122.744,49.58c0-0.047,0.005-0.079,0.014-0.099l2.926-9.506c0.065-0.215,0.246-0.322,0.542-0.322
		c0.296,0,0.482,0.108,0.556,0.324l2.919,9.527c0,0.01,0.002,0.022,0.007,0.04c0.005,0.019,0.007,0.031,0.007,0.04
		c0,0.107-0.061,0.198-0.182,0.273c-0.122,0.075-0.248,0.113-0.378,0.113c-0.177,0-0.294-0.079-0.35-0.238l-0.644-2.155h-3.867
		l-0.649,2.157c-0.038,0.158-0.16,0.236-0.367,0.236c-0.131,0-0.253-0.037-0.367-0.112C122.8,49.785,122.744,49.691,122.744,49.58z
		 M124.536,46.779h3.388l-1.688-5.653L124.536,46.779z"/>
	<path fill="#17E69D" d="M132.035,49.607v-9.534c0-0.205,0.131-0.316,0.392-0.336h2.576c0.877,0,1.577,0.238,2.101,0.715
		c0.521,0.476,0.783,1.227,0.783,2.254v0.14c0,1.026-0.264,1.78-0.791,2.261c-0.527,0.481-1.234,0.722-2.121,0.722h-2.016v3.779
		c0,0.112-0.046,0.201-0.14,0.267c-0.094,0.065-0.201,0.098-0.322,0.098c-0.131,0-0.24-0.032-0.329-0.098
		C132.079,49.809,132.035,49.72,132.035,49.607z M132.958,45.029h2.016c0.635,0,1.125-0.177,1.471-0.531s0.518-0.892,0.518-1.61
		V42.72c0-1.419-0.662-2.128-1.988-2.128h-2.016V45.029z"/>
	<path fill="#17E69D" d="M140.289,49.607v-9.52c0-0.112,0.043-0.198,0.127-0.259s0.182-0.092,0.293-0.092h4.984
		c0.232,0,0.35,0.136,0.35,0.406c0,0.121-0.029,0.227-0.09,0.315c-0.062,0.089-0.148,0.133-0.26,0.133h-4.48v3.85h2.199
		c0.111,0,0.197,0.04,0.258,0.119s0.092,0.18,0.092,0.301c0,0.252-0.117,0.378-0.35,0.378h-2.199v3.879h4.48
		c0.104,0,0.188,0.042,0.252,0.126s0.098,0.187,0.098,0.308c0,0.28-0.117,0.42-0.35,0.42h-4.984c-0.111,0-0.209-0.032-0.293-0.098
		S140.289,49.72,140.289,49.607z"/>
	<path fill="#17E69D" d="M148.361,49.607v-9.534c0-0.205,0.117-0.316,0.35-0.336h2.479c0.906,0,1.637,0.215,2.191,0.645
		s0.832,1.134,0.832,2.114c0,1.549-0.727,2.449-2.184,2.701l2.156,4.145c0.037,0.047,0.057,0.107,0.057,0.182
		c0,0.122-0.057,0.231-0.168,0.329C153.961,49.95,153.84,50,153.709,50c-0.168,0-0.33-0.163-0.49-0.49l-2.154-4.2h-1.779v4.298
		c0,0.112-0.047,0.201-0.139,0.267c-0.094,0.065-0.201,0.098-0.322,0.098c-0.131,0-0.24-0.032-0.33-0.098
		C148.406,49.809,148.361,49.72,148.361,49.607z M149.285,44.512h1.904c1.4,0,2.1-0.658,2.1-1.974c0-1.298-0.699-1.946-2.1-1.946
		h-1.904V44.512z"/>
</g>
<g>
	<path fill="#17E69D" d="M195.49,48.502c0-0.111,0.045-0.226,0.134-0.343c0.089-0.116,0.185-0.175,0.286-0.175
		c0.075,0,0.168,0.061,0.281,0.182l0.392,0.406c0.14,0.149,0.361,0.282,0.665,0.399c0.303,0.116,0.655,0.175,1.057,0.175
		c0.662,0,1.176-0.166,1.54-0.497s0.546-0.81,0.546-1.436c0-0.42-0.086-0.776-0.259-1.07s-0.395-0.521-0.665-0.68
		c-0.262-0.168-0.561-0.316-0.896-0.447l-1.008-0.393c-0.336-0.13-0.637-0.287-0.902-0.469s-0.486-0.438-0.658-0.77
		c-0.173-0.332-0.26-0.726-0.26-1.184c0-0.487,0.092-0.907,0.273-1.26c0.182-0.352,0.428-0.617,0.735-0.795
		c0.308-0.179,0.623-0.308,0.944-0.388c0.322-0.079,0.66-0.119,1.016-0.119c0.568,0,1.104,0.081,1.604,0.245
		c0.498,0.163,0.748,0.366,0.748,0.608c0,0.112-0.039,0.227-0.119,0.343c-0.079,0.117-0.174,0.176-0.287,0.176
		c-0.056,0-0.162-0.043-0.321-0.13c-0.159-0.086-0.38-0.173-0.665-0.259s-0.609-0.13-0.973-0.13c-0.588,0-1.074,0.126-1.457,0.378
		s-0.573,0.668-0.573,1.246c0,0.401,0.114,0.737,0.343,1.008c0.229,0.271,0.516,0.467,0.861,0.588
		c0.345,0.122,0.719,0.267,1.119,0.435c0.402,0.168,0.775,0.348,1.121,0.539c0.345,0.191,0.632,0.495,0.86,0.91
		s0.343,0.926,0.343,1.532c0,0.957-0.266,1.675-0.798,2.153S199.266,50,198.361,50c-0.812,0-1.494-0.173-2.045-0.52
		S195.49,48.808,195.49,48.502z"/>
	<path fill="#17E69D" d="M203.725,46.99v-4.34c0-1.018,0.273-1.769,0.818-2.254c0.547-0.485,1.254-0.729,2.121-0.729
		c0.887,0,1.59,0.227,2.107,0.68c0.518,0.452,0.777,1.006,0.777,1.658c0,0.225-0.035,0.374-0.105,0.448
		c-0.07,0.075-0.189,0.112-0.357,0.112c-0.289,0-0.443-0.116-0.461-0.35c-0.01-0.141-0.028-0.275-0.057-0.406
		c-0.027-0.131-0.084-0.277-0.168-0.441c-0.084-0.163-0.193-0.306-0.329-0.427s-0.324-0.222-0.567-0.301
		c-0.242-0.079-0.522-0.119-0.84-0.119c-1.344,0-2.016,0.709-2.016,2.128v4.34c0,1.428,0.69,2.143,2.072,2.143
		c0.392,0,0.719-0.054,0.98-0.161c0.26-0.107,0.451-0.264,0.573-0.47c0.121-0.205,0.203-0.38,0.245-0.524s0.077-0.334,0.105-0.567
		c0.027-0.242,0.182-0.364,0.461-0.364c0.168,0,0.287,0.04,0.357,0.119c0.07,0.08,0.105,0.231,0.105,0.455
		c0,0.663-0.264,1.223-0.791,1.681c-0.527,0.457-1.239,0.686-2.135,0.686c-0.859,0-1.557-0.242-2.094-0.728
		S203.725,48.018,203.725,46.99z"/>
	<path fill="#17E69D" d="M211.992,49.538v-9.534c0-0.224,0.154-0.336,0.462-0.336s0.462,0.112,0.462,0.336v9.534
		c0,0.112-0.047,0.201-0.14,0.267c-0.094,0.065-0.201,0.098-0.322,0.098c-0.131,0-0.24-0.032-0.329-0.098
		C212.037,49.739,211.992,49.65,211.992,49.538z"/>
	<path fill="#17E69D" d="M215.332,48.502c0-0.111,0.045-0.226,0.134-0.343c0.089-0.116,0.185-0.175,0.286-0.175
		c0.075,0,0.168,0.061,0.281,0.182l0.392,0.406c0.14,0.149,0.361,0.282,0.665,0.399c0.303,0.116,0.655,0.175,1.057,0.175
		c0.662,0,1.176-0.166,1.54-0.497s0.546-0.81,0.546-1.436c0-0.42-0.086-0.776-0.259-1.07s-0.395-0.521-0.665-0.68
		c-0.262-0.168-0.561-0.316-0.896-0.447l-1.008-0.393c-0.336-0.13-0.637-0.287-0.902-0.469s-0.486-0.438-0.658-0.77
		c-0.173-0.332-0.26-0.726-0.26-1.184c0-0.487,0.092-0.907,0.273-1.26c0.182-0.352,0.428-0.617,0.735-0.795
		c0.308-0.179,0.623-0.308,0.944-0.388c0.322-0.079,0.66-0.119,1.016-0.119c0.568,0,1.104,0.081,1.604,0.245
		c0.498,0.163,0.748,0.366,0.748,0.608c0,0.112-0.039,0.227-0.119,0.343c-0.079,0.117-0.174,0.176-0.287,0.176
		c-0.056,0-0.162-0.043-0.321-0.13c-0.159-0.086-0.38-0.173-0.665-0.259s-0.609-0.13-0.973-0.13c-0.588,0-1.074,0.126-1.457,0.378
		s-0.573,0.668-0.573,1.246c0,0.401,0.114,0.737,0.343,1.008c0.229,0.271,0.516,0.467,0.861,0.588
		c0.345,0.122,0.719,0.267,1.119,0.435c0.402,0.168,0.775,0.348,1.121,0.539c0.345,0.191,0.632,0.495,0.86,0.91
		s0.343,0.926,0.343,1.532c0,0.957-0.266,1.675-0.798,2.153S219.107,50,218.203,50c-0.812,0-1.494-0.173-2.045-0.52
		S215.332,48.808,215.332,48.502z"/>
	<path fill="#17E69D" d="M223.279,48.502c0-0.111,0.044-0.226,0.133-0.343c0.088-0.116,0.184-0.175,0.287-0.175
		c0.074,0,0.168,0.061,0.279,0.182l0.393,0.406c0.14,0.149,0.361,0.282,0.665,0.399c0.303,0.116,0.655,0.175,1.057,0.175
		c0.663,0,1.177-0.166,1.54-0.497c0.364-0.331,0.546-0.81,0.546-1.436c0-0.42-0.087-0.776-0.259-1.07
		c-0.173-0.294-0.395-0.521-0.665-0.68c-0.261-0.168-0.56-0.316-0.896-0.447l-1.008-0.393c-0.336-0.13-0.638-0.287-0.904-0.469
		c-0.266-0.182-0.484-0.438-0.657-0.77c-0.173-0.332-0.259-0.726-0.259-1.184c0-0.487,0.091-0.907,0.272-1.26
		c0.183-0.352,0.427-0.617,0.735-0.795c0.308-0.179,0.623-0.308,0.945-0.388c0.321-0.079,0.66-0.119,1.015-0.119
		c0.569,0,1.104,0.081,1.603,0.245c0.5,0.163,0.75,0.366,0.75,0.608c0,0.112-0.041,0.227-0.119,0.343
		c-0.08,0.117-0.176,0.176-0.287,0.176c-0.057,0-0.164-0.043-0.322-0.13c-0.159-0.086-0.381-0.173-0.665-0.259
		c-0.285-0.086-0.608-0.13-0.974-0.13c-0.588,0-1.072,0.126-1.455,0.378s-0.574,0.668-0.574,1.246c0,0.401,0.113,0.737,0.343,1.008
		c0.229,0.271,0.516,0.467,0.86,0.588c0.346,0.122,0.719,0.267,1.121,0.435c0.4,0.168,0.774,0.348,1.119,0.539
		c0.346,0.191,0.633,0.495,0.861,0.91s0.344,0.926,0.344,1.532c0,0.957-0.267,1.675-0.799,2.153
		c-0.531,0.479-1.25,0.717-2.156,0.717c-0.812,0-1.493-0.173-2.043-0.52C223.555,49.134,223.279,48.808,223.279,48.502z"/>
	<path fill="#17E69D" d="M231.513,46.99v-4.34c0-1.026,0.264-1.78,0.791-2.261c0.526-0.48,1.233-0.722,2.12-0.722
		s1.594,0.241,2.121,0.722s0.791,1.234,0.791,2.261v4.34c0,1.036-0.264,1.795-0.791,2.275s-1.234,0.721-2.121,0.721
		s-1.594-0.24-2.12-0.721C231.776,48.785,231.513,48.026,231.513,46.99z M232.437,46.99c0,1.428,0.663,2.143,1.987,2.143
		c1.326,0,1.988-0.715,1.988-2.143v-4.34c0-1.419-0.662-2.128-1.988-2.128c-1.324,0-1.987,0.709-1.987,2.128V46.99z"/>
	<path fill="#17E69D" d="M240.019,49.538v-9.534c0-0.205,0.116-0.316,0.351-0.336h2.478c0.905,0,1.636,0.215,2.19,0.645
		c0.556,0.43,0.834,1.134,0.834,2.114c0,1.549-0.729,2.449-2.185,2.701l2.156,4.145c0.037,0.047,0.056,0.107,0.056,0.182
		c0,0.122-0.056,0.231-0.168,0.329c-0.111,0.098-0.233,0.147-0.363,0.147c-0.168,0-0.332-0.163-0.49-0.49l-2.156-4.2h-1.778v4.298
		c0,0.112-0.046,0.201-0.14,0.267s-0.201,0.098-0.322,0.098c-0.131,0-0.24-0.032-0.329-0.098S240.019,49.65,240.019,49.538z
		 M240.942,44.442h1.904c1.399,0,2.101-0.658,2.101-1.974c0-1.298-0.701-1.946-2.101-1.946h-1.904V44.442z"/>
	<path fill="#17E69D" d="M247.902,48.502c0-0.111,0.044-0.226,0.133-0.343c0.088-0.116,0.184-0.175,0.287-0.175
		c0.074,0,0.168,0.061,0.279,0.182l0.393,0.406c0.14,0.149,0.361,0.282,0.665,0.399c0.303,0.116,0.655,0.175,1.057,0.175
		c0.663,0,1.177-0.166,1.54-0.497c0.364-0.331,0.546-0.81,0.546-1.436c0-0.42-0.087-0.776-0.259-1.07
		c-0.173-0.294-0.395-0.521-0.665-0.68c-0.261-0.168-0.56-0.316-0.896-0.447l-1.008-0.393c-0.336-0.13-0.638-0.287-0.904-0.469
		c-0.266-0.182-0.484-0.438-0.657-0.77c-0.173-0.332-0.259-0.726-0.259-1.184c0-0.487,0.091-0.907,0.272-1.26
		c0.183-0.352,0.427-0.617,0.735-0.795c0.308-0.179,0.623-0.308,0.945-0.388c0.321-0.079,0.66-0.119,1.015-0.119
		c0.569,0,1.104,0.081,1.603,0.245c0.5,0.163,0.75,0.366,0.75,0.608c0,0.112-0.041,0.227-0.119,0.343
		c-0.08,0.117-0.176,0.176-0.287,0.176c-0.057,0-0.164-0.043-0.322-0.13c-0.159-0.086-0.381-0.173-0.665-0.259
		c-0.285-0.086-0.608-0.13-0.974-0.13c-0.588,0-1.072,0.126-1.455,0.378s-0.574,0.668-0.574,1.246c0,0.401,0.113,0.737,0.343,1.008
		c0.229,0.271,0.516,0.467,0.86,0.588c0.346,0.122,0.719,0.267,1.121,0.435c0.4,0.168,0.774,0.348,1.119,0.539
		c0.346,0.191,0.633,0.495,0.861,0.91s0.344,0.926,0.344,1.532c0,0.957-0.267,1.675-0.799,2.153
		c-0.531,0.479-1.25,0.717-2.156,0.717c-0.812,0-1.493-0.173-2.043-0.52C248.178,49.134,247.902,48.808,247.902,48.502z"/>
</g>
</svg>
