<?xml version="1.0" encoding="utf-8"?>
<!-- Generator: Adobe Illustrator 16.0.0, SVG Export Plug-In . SVG Version: 6.00 Build 0)  -->
<!DOCTYPE svg PUBLIC "-//W3C//DTD SVG 1.0//EN" "http://www.w3.org/TR/2001/REC-SVG-20010904/DTD/svg10.dtd">
<svg version="1.0" xmlns="http://www.w3.org/2000/svg" xmlns:xlink="http://www.w3.org/1999/xlink" x="0px" y="0px" width="180px"
	 height="270px" viewBox="0 0 180 270" enable-background="new 0 0 180 270" xml:space="preserve">
<g id="BASE">
	<rect display="none" fill="#0EC64B" width="90" height="90"/>
	<circle fill="#B7B7AD" cx="45" cy="45" r="45"/>
</g>
<g id="W" display="none">
	<circle display="inline" fill="#FFFFFF" cx="45" cy="45" r="35"/>
</g>
<g id="G">
	<circle fill="#DFDFD5" cx="45" cy="45" r="35"/>
</g>
<g id="CHOOSEN">
	<g>
		<rect x="90" display="none" fill="#0EC64B" width="90" height="90"/>
		<g>
			<g>
				<path fill="#B7B7AD" d="M163,41.393h-4c-0.553,0-1-0.448-1-1s0.447-1,1-1h4c0.553,0,1,0.448,1,1S163.553,41.393,163,41.393z"/>
			</g>
			<g>
				<path fill="#B7B7AD" d="M157.929,37.393c-0.346,0-0.682-0.179-0.867-0.5c-0.276-0.479-0.112-1.09,0.366-1.366l3.465-2
					c0.476-0.277,1.089-0.113,1.366,0.366c0.276,0.479,0.112,1.09-0.366,1.366l-3.465,2
					C158.271,37.35,158.099,37.393,157.929,37.393z"/>
			</g>
			<g>
				<path fill="#B7B7AD" d="M154.999,34.465c-0.17,0-0.342-0.043-0.499-0.134c-0.479-0.276-0.643-0.888-0.366-1.366l2-3.465
					c0.276-0.479,0.889-0.642,1.366-0.366c0.479,0.276,0.643,0.888,0.366,1.366l-2,3.465
					C155.681,34.286,155.345,34.465,154.999,34.465z"/>
			</g>
			<g>
				<path fill="#B7B7AD" d="M157.001,51.785c-0.346,0-0.682-0.18-0.867-0.5l-2-3.465c-0.276-0.479-0.112-1.09,0.366-1.366
					c0.477-0.276,1.089-0.112,1.366,0.366l2,3.465c0.276,0.479,0.112,1.09-0.366,1.366
					C157.343,51.742,157.171,51.785,157.001,51.785z"/>
			</g>
			<g>
				<path fill="#B7B7AD" d="M161.392,47.393c-0.17,0-0.342-0.043-0.499-0.134l-3.464-2c-0.479-0.276-0.643-0.888-0.366-1.366
					c0.276-0.479,0.889-0.643,1.366-0.366l3.464,2c0.479,0.276,0.643,0.888,0.366,1.366
					C162.073,47.214,161.737,47.393,161.392,47.393z"/>
			</g>
		</g>
		<g>
			<g>
				<path fill="#B7B7AD" d="M107,41.393h4c0.553,0,1-0.448,1-1s-0.447-1-1-1h-4c-0.553,0-1,0.448-1,1S106.447,41.393,107,41.393z"/>
			</g>
			<g>
				<path fill="#B7B7AD" d="M112.071,37.393c0.346,0,0.682-0.179,0.867-0.5c0.276-0.479,0.112-1.09-0.366-1.366l-3.465-2
					c-0.476-0.277-1.089-0.113-1.366,0.366c-0.276,0.479-0.112,1.09,0.366,1.366l3.465,2
					C111.729,37.35,111.901,37.393,112.071,37.393z"/>
			</g>
			<g>
				<path fill="#B7B7AD" d="M115.001,34.465c0.17,0,0.342-0.043,0.499-0.134c0.479-0.276,0.643-0.888,0.366-1.366l-2-3.465
					c-0.276-0.479-0.889-0.642-1.366-0.366c-0.479,0.276-0.643,0.888-0.366,1.366l2,3.465
					C114.319,34.286,114.655,34.465,115.001,34.465z"/>
			</g>
			<g>
				<path fill="#B7B7AD" d="M112.999,51.785c0.346,0,0.682-0.18,0.867-0.5l2-3.465c0.276-0.479,0.112-1.09-0.366-1.366
					c-0.477-0.276-1.089-0.112-1.366,0.366l-2,3.465c-0.276,0.479-0.112,1.09,0.366,1.366
					C112.657,51.742,112.829,51.785,112.999,51.785z"/>
			</g>
			<g>
				<path fill="#B7B7AD" d="M108.608,47.393c0.17,0,0.342-0.043,0.499-0.134l3.464-2c0.479-0.276,0.643-0.888,0.366-1.366
					c-0.276-0.479-0.889-0.643-1.366-0.366l-3.464,2c-0.479,0.276-0.643,0.888-0.366,1.366
					C107.927,47.214,108.263,47.393,108.608,47.393z"/>
			</g>
		</g>
	</g>
</g>
<g id="STONE">
	<rect y="90" display="none" fill="#0EC64B" width="90" height="90"/>
	<g>
		<circle fill="#FF0273" cx="50" cy="130" r="1"/>
		<path fill="#FF0273" d="M59,121v-1h-2v3h-1v2h-1v-3h1v-2h-2v2h-1v1h-1v-2h1v-1h-2v1h-1v-1H31v1h-1v28h1v1h28v-1h1v-28H59z M40,133
			c-1.657,0-3-1.344-3-3s1.343-3,3-3c1.656,0,3,1.344,3,3S41.656,133,40,133z M50,133c-1.657,0-3-1.344-3-3s1.343-3,3-3
			c1.656,0,3,1.344,3,3S51.656,133,50,133z"/>
		<circle fill="#FF0273" cx="40" cy="130" r="1"/>
	</g>
</g>
<g id="PAPER">
	<rect x="90" y="90" display="none" fill="#0EC64B" width="90" height="90"/>
	<circle fill="#FF0273" cx="140" cy="130" r="1"/>
	<path fill="#FF0273" d="M147,120h-27v30h30v-27L147,120z M124,148h-2v-2h2V148z M124,144h-2v-2h2V144z M124,140h-2v-2h2V140z
		 M124,136h-2v-2h2V136z M124,132h-2v-2h2V132z M124,128h-2v-2h2V128z M124,124h-2v-2h2V124z M130,133c-1.657,0-3-1.344-3-3
		s1.343-3,3-3c1.656,0,3,1.344,3,3S131.656,133,130,133z M140,133c-1.657,0-3-1.344-3-3s1.343-3,3-3c1.656,0,3,1.344,3,3
		S141.656,133,140,133z"/>
	<circle fill="#FF0273" cx="130" cy="130" r="1"/>
</g>
<g id="SCISSORS">
	<rect y="180" display="none" fill="#0EC64B" width="90" height="90"/>
	<circle fill="#FF0273" cx="50" cy="220" r="1"/>
	<g>
		<path fill="#FF0273" d="M59,224v-1h1v-12h-1v-1H47v1h-1v11h-2v-11h-1v-1H31v1h-1v12h1v1h11v2H30v14l14-14h2l14,14v-14H48v-2H59z
			 M33,221v-8h8v3.142c-0.321-0.083-0.652-0.142-1-0.142c-2.209,0-4,1.791-4,4c0,0.348,0.058,0.679,0.142,1H33z M40,223
			c-1.657,0-3-1.344-3-3s1.343-3,3-3c1.656,0,3,1.344,3,3S41.656,223,40,223z M46,225h-2v-1h2V225z M49,213h8v8h-3.142
			c0.083-0.321,0.142-0.652,0.142-1c0-2.209-1.792-4-4-4c-0.348,0-0.679,0.059-1,0.142V213z M47,220c0-1.656,1.343-3,3-3
			c1.656,0,3,1.344,3,3s-1.344,3-3,3C48.343,223,47,221.656,47,220z"/>
	</g>
	<circle fill="#FF0273" cx="40" cy="220" r="1"/>
</g>
</svg>
