<?xml version="1.0" encoding="utf-8"?>
<!-- Generator: Adobe Illustrator 16.0.4, SVG Export Plug-In . SVG Version: 6.00 Build 0)  -->
<!DOCTYPE svg PUBLIC "-//W3C//DTD SVG 1.0//EN" "http://www.w3.org/TR/2001/REC-SVG-20010904/DTD/svg10.dtd">
<svg version="1.0" id="Layer_1_copy" xmlns="http://www.w3.org/2000/svg" xmlns:xlink="http://www.w3.org/1999/xlink" x="0px"
	 y="0px" width="240px" height="120px" viewBox="0 0 240 120" enable-background="new 0 0 240 120" xml:space="preserve">
<polygon fill="#FFFFFF" points="113.521,59.051 120,46.336 116.085,21.615 98.387,3.916 73.665,0 60.95,6.479 58.387,3.916 
	33.665,0 11.363,11.363 0,33.665 3.916,58.386 6.479,60.949 0,73.665 3.916,98.386 21.615,116.085 46.335,120 59.051,113.521 
	61.615,116.085 86.336,120 108.637,108.637 120,86.336 116.085,61.615 "/>
<polygon fill="#FFFFFF" points="233.521,59.051 240,46.336 236.085,21.615 218.387,3.916 193.665,0 180.949,6.479 178.387,3.916 
	153.665,0 131.363,11.363 120,33.665 123.916,58.386 126.479,60.949 120,73.665 123.916,98.386 141.615,116.085 166.336,120 
	179.051,113.521 181.615,116.085 206.336,120 228.637,108.637 240,86.336 236.085,61.615 "/>
<path fill="#FFFF66" d="M95.681,59.366L100,50.891L97.391,34.41L85.592,22.61L69.109,20l-8.477,4.319l-1.708-1.709L42.443,20
	l-14.868,7.576L20,42.443l2.611,16.48l1.708,1.708L20,69.109l2.611,16.481L34.41,97.39L50.89,100l8.477-4.319l1.709,1.709
	l16.48,2.61l14.867-7.575L100,77.557l-2.609-16.48L95.681,59.366z M88.043,60.807L90,73.168l-5.682,11.15L73.168,90l-12.361-1.958
	l-1.282-1.281L53.167,90l-12.36-1.958l-8.849-8.849L30,66.832l3.239-6.357l-1.281-1.282L30,46.833l5.682-11.151L46.833,30
	l12.361,1.958l1.281,1.281L66.832,30l12.361,1.958l8.85,8.849L90,53.168l-3.239,6.357L88.043,60.807z"/>
<g>
	<g>
		<path fill="#FFFF66" d="M77.841,59.684L80,55.445l-1.305-8.241l-5.9-5.899L64.555,40l-4.238,2.159l-0.854-0.854L51.222,40
			l-7.434,3.788L40,51.222l1.305,8.24l0.854,0.854L40,64.555l1.305,8.241l5.899,5.898L55.445,80l4.239-2.16l0.854,0.854L68.779,80
			l7.434-3.788L80,68.779l-1.305-8.241L77.841,59.684z M69.348,60.269L70,64.39l-1.894,3.716L64.39,70l-4.121-0.652l-0.427-0.428
			L57.723,70l-4.12-0.652l-2.95-2.949L50,62.277l1.08-2.119l-0.428-0.427L50,55.611l1.894-3.717L55.611,50l4.121,0.652l0.427,0.427
			L62.277,50l4.12,0.652l2.95,2.95L70,57.723l-1.08,2.119L69.348,60.269z"/>
	</g>
</g>
</svg>
