<?xml version="1.0" encoding="utf-8"?>
<!-- Generator: Adobe Illustrator 16.0.4, SVG Export Plug-In . SVG Version: 6.00 Build 0)  -->
<!DOCTYPE svg PUBLIC "-//W3C//DTD SVG 1.0//EN" "http://www.w3.org/TR/2001/REC-SVG-20010904/DTD/svg10.dtd">
<svg version="1.0" id="Layer_1" xmlns="http://www.w3.org/2000/svg" xmlns:xlink="http://www.w3.org/1999/xlink" x="0px" y="0px"
	 width="240px" height="120px" viewBox="0 0 240 120" enable-background="new 0 0 240 120" xml:space="preserve">
<polygon fill="#484752" points="113.521,59.051 120,46.336 116.085,21.615 98.387,3.916 73.665,0 60.95,6.479 58.387,3.916 
	33.665,0 11.363,11.363 0,33.665 3.916,58.386 6.479,60.949 0,73.665 3.916,98.386 21.615,116.085 46.335,120 59.051,113.521 
	61.615,116.085 86.336,120 108.637,108.637 120,86.336 116.085,61.615 "/>
<polygon fill="#FFFFFF" points="233.521,59.051 240,46.336 236.085,21.615 218.387,3.916 193.665,0 180.949,6.479 178.387,3.916 
	153.665,0 131.363,11.363 120,33.665 123.916,58.386 126.479,60.949 120,73.665 123.916,98.386 141.615,116.085 166.336,120 
	179.051,113.521 181.615,116.085 206.336,120 228.637,108.637 240,86.336 236.085,61.615 "/>
<path fill="#FFFF66" d="M95.681,59.366L100,50.891L97.391,34.41L85.592,22.61L69.109,20l-8.477,4.319l-1.708-1.709L42.443,20
	l-14.868,7.576L20,42.443l2.611,16.48l1.708,1.708L20,69.109l2.611,16.481L34.41,97.39L50.89,100l8.477-4.319l1.709,1.709
	l16.48,2.61l14.867-7.575L100,77.557l-2.609-16.48L95.681,59.366z M88.043,60.807L90,73.168l-5.682,11.15L73.168,90l-12.361-1.958
	l-1.282-1.281L53.167,90l-12.36-1.958l-8.849-8.849L30,66.832l3.239-6.357l-1.281-1.282L30,46.833l5.682-11.151L46.833,30
	l12.361,1.958l1.281,1.281L66.832,30l12.361,1.958l8.85,8.849L90,53.168l-3.239,6.357L88.043,60.807z"/>
<polygon fill="#FFFFFF" points="77.841,59.684 80,55.445 78.695,47.205 72.795,41.305 64.555,40 60.316,42.159 59.462,41.305 
	51.222,40 43.788,43.788 40,51.222 41.305,59.462 42.16,60.316 40,64.555 41.305,72.796 47.205,78.694 55.445,80 59.684,77.84 
	60.538,78.694 68.779,80 76.213,76.212 80,68.779 78.695,60.538 "/>
</svg>
