<?xml version="1.0" encoding="utf-8"?>
<!-- Generator: Adobe Illustrator 16.0.4, SVG Export Plug-In . SVG Version: 6.00 Build 0)  -->
<!DOCTYPE svg PUBLIC "-//W3C//DTD SVG 1.0//EN" "http://www.w3.org/TR/2001/REC-SVG-20010904/DTD/svg10.dtd">
<svg version="1.0" xmlns="http://www.w3.org/2000/svg" xmlns:xlink="http://www.w3.org/1999/xlink" x="0px" y="0px" width="240px"
	 height="370px" viewBox="0 0 240 370" enable-background="new 0 0 240 370" xml:space="preserve">
<g id="PRESS_50px_x__x_50px__x7C__x7C__0_-320px">
	<circle fill="#FFFF66" cx="25" cy="345" r="25"/>
</g>
<g id="ARROWS_240px_x__x_160px__x7C__x7C__0_-160px">
	<g display="none" opacity="0.1" enable-background="new    ">
		<g display="inline">
			<defs>
				<rect id="SVGID_1_" x="170" y="250" width="60" height="60"/>
			</defs>
			<clipPath id="SVGID_2_">
				<use xlink:href="#SVGID_1_"  overflow="visible"/>
			</clipPath>
			<g clip-path="url(#SVGID_2_)">
				<defs>
					<path id="SVGID_3_" d="M230,255c0-2.762-2.242-5-4.999-5h-50.002c-2.761,0-4.999,2.242-4.999,5v50c0,2.762,2.242,5,4.999,5
						h50.002c2.761,0,4.999-2.242,4.999-5V255z"/>
				</defs>
				<clipPath id="SVGID_4_">
					<use xlink:href="#SVGID_3_"  overflow="visible"/>
				</clipPath>
				<g clip-path="url(#SVGID_4_)">
					<defs>
						<rect id="SVGID_5_" y="160" width="240" height="160"/>
					</defs>
					<clipPath id="SVGID_6_">
						<use xlink:href="#SVGID_5_"  overflow="visible"/>
					</clipPath>
					
						<rect x="165" y="245" clip-path="url(#SVGID_6_)" fill-rule="evenodd" clip-rule="evenodd" fill="#004752" width="70" height="70"/>
				</g>
			</g>
		</g>
	</g>
	<g display="none" opacity="0.1" enable-background="new    ">
		<g display="inline">
			<defs>
				<rect id="SVGID_7_" x="10" y="250" width="60" height="60"/>
			</defs>
			<clipPath id="SVGID_8_">
				<use xlink:href="#SVGID_7_"  overflow="visible"/>
			</clipPath>
			<g clip-path="url(#SVGID_8_)">
				<defs>
					<path id="SVGID_9_" d="M10,255c0-2.762,2.243-5,5-5h50c2.762,0,5,2.242,5,5v50c0,2.762-2.242,5-5,5H15c-2.761,0-5-2.242-5-5
						V255z"/>
				</defs>
				<clipPath id="SVGID_10_">
					<use xlink:href="#SVGID_9_"  overflow="visible"/>
				</clipPath>
				<g clip-path="url(#SVGID_10_)">
					<defs>
						<rect id="SVGID_11_" y="160" width="240" height="160"/>
					</defs>
					<clipPath id="SVGID_12_">
						<use xlink:href="#SVGID_11_"  overflow="visible"/>
					</clipPath>
					
						<rect x="5" y="245" clip-path="url(#SVGID_12_)" fill-rule="evenodd" clip-rule="evenodd" fill="#004752" width="70" height="70"/>
				</g>
			</g>
		</g>
	</g>
	<g display="none" opacity="0.1" enable-background="new    ">
		<g display="inline">
			<defs>
				<rect id="SVGID_13_" x="90" y="250" width="60" height="60"/>
			</defs>
			<clipPath id="SVGID_14_">
				<use xlink:href="#SVGID_13_"  overflow="visible"/>
			</clipPath>
			<g clip-path="url(#SVGID_14_)">
				<defs>
					<path id="SVGID_15_" d="M95,310c-2.762,0-5-2.242-5-5v-50c0-2.762,2.242-5,5-5h50.001c2.761,0,4.999,2.242,4.999,5v50
						c0,2.762-2.242,5-4.999,5H95z"/>
				</defs>
				<clipPath id="SVGID_16_">
					<use xlink:href="#SVGID_15_"  overflow="visible"/>
				</clipPath>
				<g clip-path="url(#SVGID_16_)">
					<defs>
						<rect id="SVGID_17_" y="160" width="240" height="160"/>
					</defs>
					<clipPath id="SVGID_18_">
						<use xlink:href="#SVGID_17_"  overflow="visible"/>
					</clipPath>
					
						<rect x="85" y="245" clip-path="url(#SVGID_18_)" fill-rule="evenodd" clip-rule="evenodd" fill="#004752" width="70" height="70"/>
				</g>
			</g>
		</g>
	</g>
	<g display="none" opacity="0.1" enable-background="new    ">
		<g display="inline">
			<defs>
				<rect id="SVGID_19_" x="90" y="170" width="60" height="60"/>
			</defs>
			<clipPath id="SVGID_20_">
				<use xlink:href="#SVGID_19_"  overflow="visible"/>
			</clipPath>
			<g clip-path="url(#SVGID_20_)">
				<defs>
					<path id="SVGID_21_" d="M95,170c-2.762,0-5,2.243-5,5v50c0,2.762,2.242,5,5,5h50.001c2.761,0,4.999-2.242,4.999-5v-50
						c0-2.761-2.242-5-4.999-5H95z"/>
				</defs>
				<clipPath id="SVGID_22_">
					<use xlink:href="#SVGID_21_"  overflow="visible"/>
				</clipPath>
				<g clip-path="url(#SVGID_22_)">
					<defs>
						<rect id="SVGID_23_" y="160" width="240" height="160"/>
					</defs>
					<clipPath id="SVGID_24_">
						<use xlink:href="#SVGID_23_"  overflow="visible"/>
					</clipPath>
					
						<rect x="85" y="165" clip-path="url(#SVGID_24_)" fill-rule="evenodd" clip-rule="evenodd" fill="#004752" width="70" height="70"/>
				</g>
			</g>
		</g>
	</g>
	<g display="none">
		<defs>
			<path id="SVGID_25_" d="M85.004,160C82.24,160,80,162.244,80,165.004v69.992c0,2.764,2.244,5.004,5.004,5.004h69.992
				c2.764,0,5.004-2.244,5.004-5.004v-69.992c0-2.764-2.244-5.004-5.004-5.004H85.004z"/>
		</defs>
		<clipPath id="SVGID_26_" display="inline">
			<use xlink:href="#SVGID_25_"  overflow="visible"/>
		</clipPath>
		<path display="inline" clip-path="url(#SVGID_26_)" fill="none" stroke="#004752" stroke-width="4" stroke-miterlimit="10" d="
			M85.004,160C82.24,160,80,162.244,80,165.004v69.992c0,2.764,2.244,5.004,5.004,5.004h69.992c2.764,0,5.004-2.244,5.004-5.004
			v-69.992c0-2.764-2.244-5.004-5.004-5.004H85.004z"/>
	</g>
	<g display="none" opacity="0.4" enable-background="new    ">
		<g display="inline">
			<defs>
				<rect id="SVGID_27_" x="85" y="165" width="70" height="70"/>
			</defs>
			<clipPath id="SVGID_28_">
				<use xlink:href="#SVGID_27_"  overflow="visible"/>
			</clipPath>
			<g clip-path="url(#SVGID_28_)">
				<defs>
					<path id="SVGID_29_" d="M90.006,165c-2.765,0-5.006,2.23-5.006,5.006v59.988c0,2.765,2.23,5.006,5.006,5.006h59.988
						c2.765,0,5.006-2.23,5.006-5.006v-59.988c0-2.765-2.23-5.006-5.006-5.006H90.006z"/>
				</defs>
				<clipPath id="SVGID_30_">
					<use xlink:href="#SVGID_29_"  overflow="visible"/>
				</clipPath>
				<g clip-path="url(#SVGID_30_)">
					<defs>
						<rect id="SVGID_31_" y="160" width="240" height="160"/>
					</defs>
					<clipPath id="SVGID_32_">
						<use xlink:href="#SVGID_31_"  overflow="visible"/>
					</clipPath>
					<path clip-path="url(#SVGID_32_)" fill="none" stroke="#004752" stroke-width="2" stroke-miterlimit="10" d="M90.006,165
						c-2.765,0-5.006,2.23-5.006,5.006v59.988c0,2.765,2.23,5.006,5.006,5.006h59.988c2.765,0,5.006-2.23,5.006-5.006v-59.988
						c0-2.765-2.23-5.006-5.006-5.006H90.006z"/>
				</g>
			</g>
		</g>
	</g>
	<g display="none">
		<defs>
			<path id="SVGID_33_" d="M85.004,320C82.24,320,80,317.756,80,314.996v-69.992c0-2.764,2.244-5.004,5.004-5.004h69.992
				c2.764,0,5.004,2.244,5.004,5.004v69.992c0,2.764-2.244,5.004-5.004,5.004H85.004z"/>
		</defs>
		<clipPath id="SVGID_34_" display="inline">
			<use xlink:href="#SVGID_33_"  overflow="visible"/>
		</clipPath>
		<path display="inline" clip-path="url(#SVGID_34_)" fill="none" stroke="#004752" stroke-width="4" stroke-miterlimit="10" d="
			M85.004,320C82.24,320,80,317.756,80,314.996v-69.992c0-2.764,2.244-5.004,5.004-5.004h69.992c2.764,0,5.004,2.244,5.004,5.004
			v69.992c0,2.764-2.244,5.004-5.004,5.004H85.004z"/>
	</g>
	<g display="none" opacity="0.4" enable-background="new    ">
		<g display="inline">
			<defs>
				<rect id="SVGID_35_" x="85" y="245" width="70" height="70"/>
			</defs>
			<clipPath id="SVGID_36_">
				<use xlink:href="#SVGID_35_"  overflow="visible"/>
			</clipPath>
			<g clip-path="url(#SVGID_36_)">
				<defs>
					<path id="SVGID_37_" d="M90.006,315c-2.765,0-5.006-2.23-5.006-5.006v-59.988c0-2.765,2.23-5.006,5.006-5.006h59.988
						c2.765,0,5.006,2.23,5.006,5.006v59.988c0,2.765-2.23,5.006-5.006,5.006H90.006z"/>
				</defs>
				<clipPath id="SVGID_38_">
					<use xlink:href="#SVGID_37_"  overflow="visible"/>
				</clipPath>
				<g clip-path="url(#SVGID_38_)">
					<defs>
						<rect id="SVGID_39_" y="160" width="240" height="160"/>
					</defs>
					<clipPath id="SVGID_40_">
						<use xlink:href="#SVGID_39_"  overflow="visible"/>
					</clipPath>
					<path clip-path="url(#SVGID_40_)" fill="none" stroke="#004752" stroke-width="2" stroke-miterlimit="10" d="M90.006,315
						c-2.765,0-5.006-2.23-5.006-5.006v-59.988c0-2.765,2.23-5.006,5.006-5.006h59.988c2.765,0,5.006,2.23,5.006,5.006v59.988
						c0,2.765-2.23,5.006-5.006,5.006H90.006z"/>
				</g>
			</g>
		</g>
	</g>
	<g display="none">
		<defs>
			<path id="SVGID_41_" d="M0,245.004C0,242.24,2.244,240,5.004,240h69.992c2.764,0,5.004,2.244,5.004,5.004v69.992
				c0,2.764-2.244,5.004-5.004,5.004H5.004C2.241,320,0,317.756,0,314.996V245.004z"/>
		</defs>
		<clipPath id="SVGID_42_" display="inline">
			<use xlink:href="#SVGID_41_"  overflow="visible"/>
		</clipPath>
		<path display="inline" clip-path="url(#SVGID_42_)" fill="none" stroke="#004752" stroke-width="4" stroke-miterlimit="10" d="
			M0,245.004C0,242.24,2.244,240,5.004,240h69.992c2.764,0,5.004,2.244,5.004,5.004v69.992c0,2.764-2.244,5.004-5.004,5.004H5.004
			C2.241,320,0,317.756,0,314.996V245.004z"/>
	</g>
	<g display="none" opacity="0.4" enable-background="new    ">
		<g display="inline">
			<defs>
				<rect id="SVGID_43_" x="5" y="245" width="70" height="70"/>
			</defs>
			<clipPath id="SVGID_44_">
				<use xlink:href="#SVGID_43_"  overflow="visible"/>
			</clipPath>
			<g clip-path="url(#SVGID_44_)">
				<defs>
					<path id="SVGID_45_" d="M5,250.006C5,247.241,7.23,245,10.006,245h59.988c2.765,0,5.006,2.23,5.006,5.006v59.988
						c0,2.765-2.23,5.006-5.006,5.006H10.006C7.241,315,5,312.77,5,309.994V250.006z"/>
				</defs>
				<clipPath id="SVGID_46_">
					<use xlink:href="#SVGID_45_"  overflow="visible"/>
				</clipPath>
				<g clip-path="url(#SVGID_46_)">
					<defs>
						<rect id="SVGID_47_" y="160" width="240" height="160"/>
					</defs>
					<clipPath id="SVGID_48_">
						<use xlink:href="#SVGID_47_"  overflow="visible"/>
					</clipPath>
					<path clip-path="url(#SVGID_48_)" fill="none" stroke="#004752" stroke-width="2" stroke-miterlimit="10" d="M5,250.006
						C5,247.241,7.23,245,10.006,245h59.988c2.765,0,5.006,2.23,5.006,5.006v59.988c0,2.765-2.23,5.006-5.006,5.006H10.006
						C7.241,315,5,312.77,5,309.994V250.006z"/>
				</g>
			</g>
		</g>
	</g>
	<g display="none">
		<defs>
			<path id="SVGID_49_" d="M240,245.004c0-2.764-2.244-5.004-5.004-5.004h-69.992c-2.764,0-5.004,2.244-5.004,5.004v69.992
				c0,2.764,2.244,5.004,5.004,5.004h69.992c2.764,0,5.004-2.244,5.004-5.004V245.004z"/>
		</defs>
		<clipPath id="SVGID_50_" display="inline">
			<use xlink:href="#SVGID_49_"  overflow="visible"/>
		</clipPath>
		<path display="inline" clip-path="url(#SVGID_50_)" fill="none" stroke="#004752" stroke-width="4" stroke-miterlimit="10" d="
			M240,245.004c0-2.764-2.244-5.004-5.004-5.004h-69.992c-2.764,0-5.004,2.244-5.004,5.004v69.992c0,2.764,2.244,5.004,5.004,5.004
			h69.992c2.764,0,5.004-2.244,5.004-5.004V245.004z"/>
	</g>
	<g display="none" opacity="0.4" enable-background="new    ">
		<g display="inline">
			<defs>
				<rect id="SVGID_51_" x="165" y="245" width="70" height="70"/>
			</defs>
			<clipPath id="SVGID_52_">
				<use xlink:href="#SVGID_51_"  overflow="visible"/>
			</clipPath>
			<g clip-path="url(#SVGID_52_)">
				<defs>
					<path id="SVGID_53_" d="M235,250.006c0-2.765-2.23-5.006-5.006-5.006h-59.988c-2.765,0-5.006,2.23-5.006,5.006v59.988
						c0,2.765,2.23,5.006,5.006,5.006h59.988c2.765,0,5.006-2.23,5.006-5.006V250.006z"/>
				</defs>
				<clipPath id="SVGID_54_">
					<use xlink:href="#SVGID_53_"  overflow="visible"/>
				</clipPath>
				<g clip-path="url(#SVGID_54_)">
					<defs>
						<rect id="SVGID_55_" y="160" width="240" height="160"/>
					</defs>
					<clipPath id="SVGID_56_">
						<use xlink:href="#SVGID_55_"  overflow="visible"/>
					</clipPath>
					<path clip-path="url(#SVGID_56_)" fill="none" stroke="#004752" stroke-width="2" stroke-miterlimit="10" d="M235,250.006
						c0-2.765-2.23-5.006-5.006-5.006h-59.988c-2.765,0-5.006,2.23-5.006,5.006v59.988c0,2.765,2.23,5.006,5.006,5.006h59.988
						c2.765,0,5.006-2.23,5.006-5.006V250.006z"/>
				</g>
			</g>
		</g>
	</g>
	<g>
		<defs>
			<polygon id="SVGID_57_" points="120,194 124,206 116,206 			"/>
		</defs>
		<clipPath id="SVGID_58_">
			<use xlink:href="#SVGID_57_"  overflow="visible"/>
		</clipPath>
		
			<rect x="111" y="189" clip-path="url(#SVGID_58_)" fill-rule="evenodd" clip-rule="evenodd" fill="#004752" width="18" height="22"/>
	</g>
	<g>
		<defs>
			<polygon id="SVGID_59_" points="120,286 124,274 116,274 			"/>
		</defs>
		<clipPath id="SVGID_60_">
			<use xlink:href="#SVGID_59_"  overflow="visible"/>
		</clipPath>
		
			<rect x="111" y="269" clip-path="url(#SVGID_60_)" fill-rule="evenodd" clip-rule="evenodd" fill="#004752" width="18" height="22"/>
	</g>
	<g>
		<defs>
			<polygon id="SVGID_61_" points="34,280 46,284 46,276 			"/>
		</defs>
		<clipPath id="SVGID_62_">
			<use xlink:href="#SVGID_61_"  overflow="visible"/>
		</clipPath>
		
			<rect x="29" y="271" clip-path="url(#SVGID_62_)" fill-rule="evenodd" clip-rule="evenodd" fill="#004752" width="22" height="18"/>
	</g>
	<g>
		<defs>
			<polygon id="SVGID_63_" points="206,280 194,284 194,276 			"/>
		</defs>
		<clipPath id="SVGID_64_">
			<use xlink:href="#SVGID_63_"  overflow="visible"/>
		</clipPath>
		
			<rect x="189" y="271" clip-path="url(#SVGID_64_)" fill-rule="evenodd" clip-rule="evenodd" fill="#004752" width="22" height="18"/>
	</g>
</g>
<g id="KEYS_240px_x__x_160px__x7C__x7C__0_0">
	<g opacity="0.1" enable-background="new    ">
		<g>
			<defs>
				<rect id="SVGID_65_" x="170" y="90" width="60" height="60"/>
			</defs>
			<clipPath id="SVGID_66_">
				<use xlink:href="#SVGID_65_"  overflow="visible"/>
			</clipPath>
			<g clip-path="url(#SVGID_66_)">
				<defs>
					<path id="SVGID_67_" d="M230,95c0-2.762-2.242-5-4.999-5h-50.002c-2.761,0-4.999,2.242-4.999,5v50c0,2.762,2.242,5,4.999,5
						h50.002c2.761,0,4.999-2.242,4.999-5V95z"/>
				</defs>
				<clipPath id="SVGID_68_">
					<use xlink:href="#SVGID_67_"  overflow="visible"/>
				</clipPath>
				<g clip-path="url(#SVGID_68_)">
					<defs>
						<rect id="SVGID_69_" width="240" height="160"/>
					</defs>
					<clipPath id="SVGID_70_">
						<use xlink:href="#SVGID_69_"  overflow="visible"/>
					</clipPath>
					
						<rect x="165" y="85" clip-path="url(#SVGID_70_)" fill-rule="evenodd" clip-rule="evenodd" fill="#004752" width="70" height="70"/>
				</g>
			</g>
		</g>
	</g>
	<g opacity="0.1" enable-background="new    ">
		<g>
			<defs>
				<rect id="SVGID_71_" x="10" y="90" width="60" height="60"/>
			</defs>
			<clipPath id="SVGID_72_">
				<use xlink:href="#SVGID_71_"  overflow="visible"/>
			</clipPath>
			<g clip-path="url(#SVGID_72_)">
				<defs>
					<path id="SVGID_73_" d="M10,95c0-2.762,2.243-5,5-5h50c2.762,0,5,2.242,5,5v50c0,2.762-2.242,5-5,5H15c-2.761,0-5-2.242-5-5V95
						z"/>
				</defs>
				<clipPath id="SVGID_74_">
					<use xlink:href="#SVGID_73_"  overflow="visible"/>
				</clipPath>
				<g clip-path="url(#SVGID_74_)">
					<defs>
						<rect id="SVGID_75_" width="240" height="160"/>
					</defs>
					<clipPath id="SVGID_76_">
						<use xlink:href="#SVGID_75_"  overflow="visible"/>
					</clipPath>
					
						<rect x="5" y="85" clip-path="url(#SVGID_76_)" fill-rule="evenodd" clip-rule="evenodd" fill="#004752" width="70" height="70"/>
				</g>
			</g>
		</g>
	</g>
	<g opacity="0.1" enable-background="new    ">
		<g>
			<defs>
				<rect id="SVGID_77_" x="90" y="90" width="60" height="60"/>
			</defs>
			<clipPath id="SVGID_78_">
				<use xlink:href="#SVGID_77_"  overflow="visible"/>
			</clipPath>
			<g clip-path="url(#SVGID_78_)">
				<defs>
					<path id="SVGID_79_" d="M95,150c-2.762,0-5-2.242-5-5V95c0-2.762,2.242-5,5-5h50.001c2.761,0,4.999,2.242,4.999,5v50
						c0,2.762-2.242,5-4.999,5H95z"/>
				</defs>
				<clipPath id="SVGID_80_">
					<use xlink:href="#SVGID_79_"  overflow="visible"/>
				</clipPath>
				<g clip-path="url(#SVGID_80_)">
					<defs>
						<rect id="SVGID_81_" width="240" height="160"/>
					</defs>
					<clipPath id="SVGID_82_">
						<use xlink:href="#SVGID_81_"  overflow="visible"/>
					</clipPath>
					
						<rect x="85" y="85" clip-path="url(#SVGID_82_)" fill-rule="evenodd" clip-rule="evenodd" fill="#004752" width="70" height="70"/>
				</g>
			</g>
		</g>
	</g>
	<g opacity="0.1" enable-background="new    ">
		<g>
			<defs>
				<rect id="SVGID_83_" x="90" y="10" width="60" height="60"/>
			</defs>
			<clipPath id="SVGID_84_">
				<use xlink:href="#SVGID_83_"  overflow="visible"/>
			</clipPath>
			<g clip-path="url(#SVGID_84_)">
				<defs>
					<path id="SVGID_85_" d="M95,10c-2.762,0-5,2.243-5,5v50c0,2.762,2.242,5,5,5h50.001c2.761,0,4.999-2.242,4.999-5V15
						c0-2.761-2.242-5-4.999-5H95z"/>
				</defs>
				<clipPath id="SVGID_86_">
					<use xlink:href="#SVGID_85_"  overflow="visible"/>
				</clipPath>
				<g clip-path="url(#SVGID_86_)">
					<defs>
						<rect id="SVGID_87_" width="240" height="160"/>
					</defs>
					<clipPath id="SVGID_88_">
						<use xlink:href="#SVGID_87_"  overflow="visible"/>
					</clipPath>
					
						<rect x="85" y="5" clip-path="url(#SVGID_88_)" fill-rule="evenodd" clip-rule="evenodd" fill="#004752" width="70" height="70"/>
				</g>
			</g>
		</g>
	</g>
	<g display="none">
		<defs>
			<polygon id="SVGID_89_" points="120,34 124,46 116,46 			"/>
		</defs>
		<clipPath id="SVGID_90_" display="inline">
			<use xlink:href="#SVGID_89_"  overflow="visible"/>
		</clipPath>
		
			<rect x="111" y="29" display="inline" clip-path="url(#SVGID_90_)" fill-rule="evenodd" clip-rule="evenodd" fill="#004752" width="18" height="22"/>
	</g>
	<g>
		<defs>
			<path id="SVGID_91_" d="M85.004,0C82.24,0,80,2.244,80,5.004v69.992C80,77.76,82.244,80,85.004,80h69.992
				c2.764,0,5.004-2.244,5.004-5.004V5.004C160,2.241,157.756,0,154.996,0H85.004z"/>
		</defs>
		<clipPath id="SVGID_92_">
			<use xlink:href="#SVGID_91_"  overflow="visible"/>
		</clipPath>
		<path clip-path="url(#SVGID_92_)" fill="none" stroke="#004752" stroke-width="4" stroke-miterlimit="10" d="M85.004,0
			C82.24,0,80,2.244,80,5.004v69.992C80,77.76,82.244,80,85.004,80h69.992c2.764,0,5.004-2.244,5.004-5.004V5.004
			C160,2.241,157.756,0,154.996,0H85.004z"/>
	</g>
	<g opacity="0.4" enable-background="new    ">
		<g>
			<defs>
				<rect id="SVGID_93_" x="85" y="5" width="70" height="70"/>
			</defs>
			<clipPath id="SVGID_94_">
				<use xlink:href="#SVGID_93_"  overflow="visible"/>
			</clipPath>
			<g clip-path="url(#SVGID_94_)">
				<defs>
					<path id="SVGID_95_" d="M90.006,5C87.241,5,85,7.23,85,10.006v59.988C85,72.759,87.23,75,90.006,75h59.988
						c2.765,0,5.006-2.23,5.006-5.006V10.006C155,7.241,152.77,5,149.994,5H90.006z"/>
				</defs>
				<clipPath id="SVGID_96_">
					<use xlink:href="#SVGID_95_"  overflow="visible"/>
				</clipPath>
				<g clip-path="url(#SVGID_96_)">
					<defs>
						<rect id="SVGID_97_" width="240" height="160"/>
					</defs>
					<clipPath id="SVGID_98_">
						<use xlink:href="#SVGID_97_"  overflow="visible"/>
					</clipPath>
					<path clip-path="url(#SVGID_98_)" fill="none" stroke="#004752" stroke-width="2" stroke-miterlimit="10" d="M90.006,5
						C87.241,5,85,7.23,85,10.006v59.988C85,72.759,87.23,75,90.006,75h59.988c2.765,0,5.006-2.23,5.006-5.006V10.006
						C155,7.241,152.77,5,149.994,5H90.006z"/>
				</g>
			</g>
		</g>
	</g>
	<g display="none">
		<defs>
			<polygon id="SVGID_99_" points="120,126 124,114 116,114 			"/>
		</defs>
		<clipPath id="SVGID_100_" display="inline">
			<use xlink:href="#SVGID_99_"  overflow="visible"/>
		</clipPath>
		
			<rect x="111" y="109" display="inline" clip-path="url(#SVGID_100_)" fill-rule="evenodd" clip-rule="evenodd" fill="#004752" width="18" height="22"/>
	</g>
	<g>
		<defs>
			<path id="SVGID_101_" d="M85.004,160C82.24,160,80,157.756,80,154.996V85.004C80,82.24,82.244,80,85.004,80h69.992
				c2.764,0,5.004,2.244,5.004,5.004v69.992c0,2.764-2.244,5.004-5.004,5.004H85.004z"/>
		</defs>
		<clipPath id="SVGID_102_">
			<use xlink:href="#SVGID_101_"  overflow="visible"/>
		</clipPath>
		<path clip-path="url(#SVGID_102_)" fill="none" stroke="#004752" stroke-width="4" stroke-miterlimit="10" d="M85.004,160
			C82.24,160,80,157.756,80,154.996V85.004C80,82.24,82.244,80,85.004,80h69.992c2.764,0,5.004,2.244,5.004,5.004v69.992
			c0,2.764-2.244,5.004-5.004,5.004H85.004z"/>
	</g>
	<g opacity="0.4" enable-background="new    ">
		<g>
			<defs>
				<rect id="SVGID_103_" x="85" y="85" width="70" height="70"/>
			</defs>
			<clipPath id="SVGID_104_">
				<use xlink:href="#SVGID_103_"  overflow="visible"/>
			</clipPath>
			<g clip-path="url(#SVGID_104_)">
				<defs>
					<path id="SVGID_105_" d="M90.006,155c-2.765,0-5.006-2.23-5.006-5.006V90.006C85,87.241,87.23,85,90.006,85h59.988
						c2.765,0,5.006,2.23,5.006,5.006v59.988c0,2.765-2.23,5.006-5.006,5.006H90.006z"/>
				</defs>
				<clipPath id="SVGID_106_">
					<use xlink:href="#SVGID_105_"  overflow="visible"/>
				</clipPath>
				<g clip-path="url(#SVGID_106_)">
					<defs>
						<rect id="SVGID_107_" width="240" height="160"/>
					</defs>
					<clipPath id="SVGID_108_">
						<use xlink:href="#SVGID_107_"  overflow="visible"/>
					</clipPath>
					<path clip-path="url(#SVGID_108_)" fill="none" stroke="#004752" stroke-width="2" stroke-miterlimit="10" d="M90.006,155
						c-2.765,0-5.006-2.23-5.006-5.006V90.006C85,87.241,87.23,85,90.006,85h59.988c2.765,0,5.006,2.23,5.006,5.006v59.988
						c0,2.765-2.23,5.006-5.006,5.006H90.006z"/>
				</g>
			</g>
		</g>
	</g>
	<g display="none">
		<defs>
			<polygon id="SVGID_109_" points="34,120 46,124 46,116 			"/>
		</defs>
		<clipPath id="SVGID_110_" display="inline">
			<use xlink:href="#SVGID_109_"  overflow="visible"/>
		</clipPath>
		
			<rect x="29" y="111" display="inline" clip-path="url(#SVGID_110_)" fill-rule="evenodd" clip-rule="evenodd" fill="#004752" width="22" height="18"/>
	</g>
	<g>
		<defs>
			<path id="SVGID_111_" d="M0,85.004C0,82.24,2.244,80,5.004,80h69.992C77.76,80,80,82.244,80,85.004v69.992
				c0,2.764-2.244,5.004-5.004,5.004H5.004C2.241,160,0,157.756,0,154.996V85.004z"/>
		</defs>
		<clipPath id="SVGID_112_">
			<use xlink:href="#SVGID_111_"  overflow="visible"/>
		</clipPath>
		<path clip-path="url(#SVGID_112_)" fill="none" stroke="#004752" stroke-width="4" stroke-miterlimit="10" d="M0,85.004
			C0,82.24,2.244,80,5.004,80h69.992C77.76,80,80,82.244,80,85.004v69.992c0,2.764-2.244,5.004-5.004,5.004H5.004
			C2.241,160,0,157.756,0,154.996V85.004z"/>
	</g>
	<g opacity="0.4" enable-background="new    ">
		<g>
			<defs>
				<rect id="SVGID_113_" x="5" y="85" width="70" height="70"/>
			</defs>
			<clipPath id="SVGID_114_">
				<use xlink:href="#SVGID_113_"  overflow="visible"/>
			</clipPath>
			<g clip-path="url(#SVGID_114_)">
				<defs>
					<path id="SVGID_115_" d="M5,90.006C5,87.241,7.23,85,10.006,85h59.988C72.759,85,75,87.23,75,90.006v59.988
						c0,2.765-2.23,5.006-5.006,5.006H10.006C7.241,155,5,152.77,5,149.994V90.006z"/>
				</defs>
				<clipPath id="SVGID_116_">
					<use xlink:href="#SVGID_115_"  overflow="visible"/>
				</clipPath>
				<g clip-path="url(#SVGID_116_)">
					<defs>
						<rect id="SVGID_117_" width="240" height="160"/>
					</defs>
					<clipPath id="SVGID_118_">
						<use xlink:href="#SVGID_117_"  overflow="visible"/>
					</clipPath>
					<path clip-path="url(#SVGID_118_)" fill="none" stroke="#004752" stroke-width="2" stroke-miterlimit="10" d="M5,90.006
						C5,87.241,7.23,85,10.006,85h59.988C72.759,85,75,87.23,75,90.006v59.988c0,2.765-2.23,5.006-5.006,5.006H10.006
						C7.241,155,5,152.77,5,149.994V90.006z"/>
				</g>
			</g>
		</g>
	</g>
	<g display="none">
		<defs>
			<polygon id="SVGID_119_" points="206,120 194,124 194,116 			"/>
		</defs>
		<clipPath id="SVGID_120_" display="inline">
			<use xlink:href="#SVGID_119_"  overflow="visible"/>
		</clipPath>
		
			<rect x="189" y="111" display="inline" clip-path="url(#SVGID_120_)" fill-rule="evenodd" clip-rule="evenodd" fill="#004752" width="22" height="18"/>
	</g>
	<g>
		<defs>
			<path id="SVGID_121_" d="M240,85.004c0-2.764-2.244-5.004-5.004-5.004h-69.992C162.24,80,160,82.244,160,85.004v69.992
				c0,2.764,2.244,5.004,5.004,5.004h69.992c2.764,0,5.004-2.244,5.004-5.004V85.004z"/>
		</defs>
		<clipPath id="SVGID_122_">
			<use xlink:href="#SVGID_121_"  overflow="visible"/>
		</clipPath>
		<path clip-path="url(#SVGID_122_)" fill="none" stroke="#004752" stroke-width="4" stroke-miterlimit="10" d="M240,85.004
			c0-2.764-2.244-5.004-5.004-5.004h-69.992C162.24,80,160,82.244,160,85.004v69.992c0,2.764,2.244,5.004,5.004,5.004h69.992
			c2.764,0,5.004-2.244,5.004-5.004V85.004z"/>
	</g>
	<g opacity="0.4" enable-background="new    ">
		<g>
			<defs>
				<rect id="SVGID_123_" x="165" y="85" width="70" height="70"/>
			</defs>
			<clipPath id="SVGID_124_">
				<use xlink:href="#SVGID_123_"  overflow="visible"/>
			</clipPath>
			<g clip-path="url(#SVGID_124_)">
				<defs>
					<path id="SVGID_125_" d="M235,90.006c0-2.765-2.23-5.006-5.006-5.006h-59.988c-2.765,0-5.006,2.23-5.006,5.006v59.988
						c0,2.765,2.23,5.006,5.006,5.006h59.988c2.765,0,5.006-2.23,5.006-5.006V90.006z"/>
				</defs>
				<clipPath id="SVGID_126_">
					<use xlink:href="#SVGID_125_"  overflow="visible"/>
				</clipPath>
				<g clip-path="url(#SVGID_126_)">
					<defs>
						<rect id="SVGID_127_" width="240" height="160"/>
					</defs>
					<clipPath id="SVGID_128_">
						<use xlink:href="#SVGID_127_"  overflow="visible"/>
					</clipPath>
					<path clip-path="url(#SVGID_128_)" fill="none" stroke="#004752" stroke-width="2" stroke-miterlimit="10" d="M235,90.006
						c0-2.765-2.23-5.006-5.006-5.006h-59.988c-2.765,0-5.006,2.23-5.006,5.006v59.988c0,2.765,2.23,5.006,5.006,5.006h59.988
						c2.765,0,5.006-2.23,5.006-5.006V90.006z"/>
				</g>
			</g>
		</g>
	</g>
</g>
</svg>
