<?xml version="1.0" encoding="utf-8"?>
<!-- Generator: Adobe Illustrator 16.0.4, SVG Export Plug-In . SVG Version: 6.00 Build 0)  -->
<!DOCTYPE svg PUBLIC "-//W3C//DTD SVG 1.0//EN" "http://www.w3.org/TR/2001/REC-SVG-20010904/DTD/svg10.dtd">
<svg version="1.0" id="Layer_1" xmlns="http://www.w3.org/2000/svg" xmlns:xlink="http://www.w3.org/1999/xlink" x="0px" y="0px"
	 width="100px" height="100px" viewBox="0 0 100 100" enable-background="new 0 0 100 100" xml:space="preserve">
<path fill="#FFFFFF" d="M100,50L74.902,51.57l24.703,4.709L74.51,54.686l23.92,7.774L73.73,57.725l22.758,10.718l-23.912-7.798
	l21.239,13.491L71.067,63.396L90.45,79.448L69.225,65.936l17.224,18.359L67.08,68.224l14.791,20.378L64.666,70.227l12.126,22.074
	L62.021,71.909l9.268,23.422L59.184,73.244l6.268,24.402l-9.246-23.432l3.164,24.996l-6.241-24.408L53.14,100L50,75l-3.14,25
	l0.013-25.197l-6.242,24.408l3.164-24.996l-9.246,23.432l6.266-24.402L28.711,95.331l9.269-23.422L23.208,92.301l12.126-22.074
	L18.129,88.602L32.92,68.224L13.551,84.295l17.224-18.359L9.549,79.448l19.384-16.052L6.184,74.136l21.24-13.491L3.511,68.442
	l22.76-10.718l-24.7,4.735l23.92-7.774L0.394,56.279l24.705-4.709L0,50l25.099-1.569L0.394,43.721l25.097,1.595l-23.92-7.774
	l24.7,4.733L3.511,31.557l23.913,7.798L6.184,25.865l22.75,10.74L9.549,20.553l21.226,13.511L13.551,15.705L32.92,31.776
	L18.129,11.398l17.206,18.376L23.208,7.7l14.771,20.393L28.711,4.669l12.104,22.087L34.549,2.353l9.246,23.432L40.631,0.789
	l6.242,24.408L46.86,0L50,25l3.14-25l-0.012,25.197l6.241-24.408l-3.164,24.997l9.246-23.432l-6.268,24.403L71.288,4.669
	l-9.268,23.423L76.792,7.7L64.666,29.774l17.205-18.376L67.08,31.776l19.368-16.071L69.225,34.064L90.45,20.553L71.067,36.604
	l22.748-10.74L72.576,39.355l23.912-7.798L73.73,42.274l24.699-4.733l-23.92,7.774l25.096-1.595L74.902,48.43L100,50z"/>
</svg>
